<?xml version="1.0" encoding="UTF-8" standalone="no"?>
<svg
   xmlns:dc="http://purl.org/dc/elements/1.1/"
   xmlns:cc="http://creativecommons.org/ns#"
   xmlns:rdf="http://www.w3.org/1999/02/22-rdf-syntax-ns#"
   xmlns:svg="http://www.w3.org/2000/svg"
   xmlns="http://www.w3.org/2000/svg"
   xmlns:sodipodi="http://sodipodi.sourceforge.net/DTD/sodipodi-0.dtd"
   xmlns:inkscape="http://www.inkscape.org/namespaces/inkscape"
   version="1.0"
   width="892.79999"
   height="392.16476"
   id="svg2"
   inkscape:version="0.48.3.1 r9886"
   sodipodi:docname="Free_Software_Foundation_logo_and_wordmark.svg">
  <metadata
     id="metadata32">
    <rdf:RDF>
      <cc:Work
         rdf:about="">
        <dc:format>image/svg+xml</dc:format>
        <dc:type
           rdf:resource="http://purl.org/dc/dcmitype/StillImage" />
        <dc:title></dc:title>
      </cc:Work>
    </rdf:RDF>
  </metadata>
  <sodipodi:namedview
     pagecolor="#ffffff"
     bordercolor="#666666"
     borderopacity="1"
     objecttolerance="10"
     gridtolerance="10"
     guidetolerance="10"
     inkscape:pageopacity="0"
     inkscape:pageshadow="2"
     inkscape:window-width="640"
     inkscape:window-height="480"
     id="namedview30"
     showgrid="false"
     fit-margin-top="0"
     fit-margin-left="0"
     fit-margin-right="0"
     fit-margin-bottom="0"
     inkscape:zoom="0.12594124"
     inkscape:cx="1695.235"
     inkscape:cy="197.6095"
     inkscape:window-x="321"
     inkscape:window-y="347"
     inkscape:window-maximized="0"
     inkscape:current-layer="svg2" />
  <defs
     id="defs59" />
  <path
     d="m 751.955,8.758772 c 0.858,0.429 -1.074,10.305 -61.406,12.452 -3.657,0.128 -39.54,2.537 -43.37,2.577 -39.721,0.429 -86.741,6.871 -120.234,14.814 -39.748,9.427 -86.097,24.047 -111.862,40.795 -10.608,6.896 -28.287,19.497 -32.85,31.775998 -6.226,16.747 11.38,31.131 22.544,32.85 16.613,2.556 36.52,-0.457 53.462,-2.577 10.306,-1.289 25.859,-4.63 34.997,-5.368 7.944,-0.644 14.357,0.161 22.544,1.503 14.385,2.363 30.918,14.6 36.929,28.341 6.38,14.587 4.482,30.663 -1.717,44.015 -5.583,12.023 -18.774,23.737 -31.132,32.205 -11.595,7.945 -28.656,15.728 -42.942,21.901 -31.776,13.741 -66.558,23.188 -100.2,33.922 -13.451,4.295 -45.799,11.811 -72.852,17.177 -17.061,3.382 -35.016,6.563 -51.958,9.019 -29.63,4.293 -60.171,7.862 -89.532,10.735 -15.198,1.476 -39.741,3.583 -39.976,-3.529 0,0 -36,10.397 -36,10.397 0.523,6.229 17.434,10.192 41.059,9.787 93.625,-1.528 395.861,-13.043 462.493,-102.548 7.139,-9.619 14.599,-32.969 14.848,-58.438 l -28.8,-64.8 c -17.973,-13.735 -46.426,-26.925998 -94.708,-13.152 -24.295,6.938 -73.839,27.522 -82.607,18.164 -8.274,-8.824 -1.404,-22.652 62.237,-52.354998 16.09,-7.488 78.354,-33.655 189.343,-44.135 l 1.664,-0.034 c 69.886,-4.032 95.578,-6.093 109.929,-10.648 4.616,-1.463 19.565,-9.769 18.242,-16.941 -0.569,-3.235 -7.768,-7.57600004 -14.332,-6.49500004 C 749.485,2.737772 741.533,2.228772 626.165,1.369772 c -27.255,-0.195 -30.717,-0.94600004 -97.53,-0.088 -60.533,0.745 -130.567,6.816 -190.235,38.083 0,0 -55.781,36.128 -55.781,36.128 -13.521,14.406 -24.807,31.715998 -28.846,48.703998 -4.039,16.988 -0.201,3.322 -0.201,3.322 0,0 34.428,59.848 34.428,59.848 1.074,0 6.722,1.906 12.001,4.32 7.818,3.57 20.336,7.677 28.771,9.448 12.238,2.577 24.906,6.442 34.353,1.932 5.038,-2.4 15.888,-12.452 15.244,-18.463 -0.711,-6.623 -12.01,-8.475 -18.894,-9.877 -11.594,-2.362 -29.69,-1.141 -44.444,-3.435 -16.25,-2.517 -29.353,-8.401 -35.212,-21.685 -5.435,-12.339 -1.502,-27.054 6.657,-39.935 7.185,-11.352998 15.209,-20.631998 25.764,-28.985998 20.611,-16.318 46.867,-30.192 73.215,-41.223 27.696,-11.594 61.19,-21.685 93.61,-24.691 32.085,-2.972 66.559,-3.865 99.409,-3.006 27.751,0.725 78.367,0 83.09,0.43 4.724,0.429 88.746,-4.254 90.391,-3.435"
     id="path1"
     style="fill:#b11107"
     inkscape:connector-curvature="0" />
  <path
     d="m 264.00001,125.76477 -264.00001,0 0,64.8 c 0,0 300.00001,0 300.00001,0 m 44,-151.199998 -272.00001,0 0,36 c 0,0 240.00001,0.128 240.00001,0.128 m 248,50.271998 0,64.8 c 0,0 332.79999,0 332.79999,0 l 0,-64.8 -332.79999,0 z m 44.79999,115.201 252,0 0,36 -252,0 0,-36 z"
     id="path2"
     style="fill:#b11107"
     inkscape:connector-curvature="0" />
  <path
     d="m 122.4,24.964772 -36,0 0,316.798998 c 0,0 36,10e-4 36,10e-4 m 496.8,-223.2 0,273.6 28.8,0 0,-273.6 -28.8,0 z"
     id="path3"
     style="fill:#b11107"
     inkscape:connector-curvature="0" />
</svg>
