<?xml version="1.0" encoding="UTF-8" standalone="no"?>
<!-- Created with Inkscape (http://www.inkscape.org/) -->

<svg
   xmlns:dc="http://purl.org/dc/elements/1.1/"
   xmlns:cc="http://creativecommons.org/ns#"
   xmlns:rdf="http://www.w3.org/1999/02/22-rdf-syntax-ns#"
   xmlns:svg="http://www.w3.org/2000/svg"
   xmlns="http://www.w3.org/2000/svg"
   xmlns:sodipodi="http://sodipodi.sourceforge.net/DTD/sodipodi-0.dtd"
   xmlns:inkscape="http://www.inkscape.org/namespaces/inkscape"
   width="720"
   height="810"
   id="svg4486"
   version="1.1"
   inkscape:version="0.48.3.1 r9886"
   sodipodi:docname="guntype_modified.svg"
   inkscape:export-filename="/home/moritz/Documents/IANUS/Veranstaltungen/2012-NWC-Blockseminar/guntype.png"
   inkscape:export-xdpi="299.94653"
   inkscape:export-ydpi="299.94653">
  <defs
     id="defs4488">
    <inkscape:perspective
       sodipodi:type="inkscape:persp3d"
       inkscape:vp_x="0 : 526.18109 : 1"
       inkscape:vp_y="0 : 1000 : 0"
       inkscape:vp_z="744.09448 : 526.18109 : 1"
       inkscape:persp3d-origin="372.04724 : 350.78739 : 1"
       id="perspective4494" />
    <inkscape:perspective
       id="perspective4449"
       inkscape:persp3d-origin="0.5 : 0.33333333 : 1"
       inkscape:vp_z="1 : 0.5 : 1"
       inkscape:vp_y="0 : 1000 : 0"
       inkscape:vp_x="0 : 0.5 : 1"
       sodipodi:type="inkscape:persp3d" />
    <inkscape:perspective
       id="perspective4585"
       inkscape:persp3d-origin="0.5 : 0.33333333 : 1"
       inkscape:vp_z="1 : 0.5 : 1"
       inkscape:vp_y="0 : 1000 : 0"
       inkscape:vp_x="0 : 0.5 : 1"
       sodipodi:type="inkscape:persp3d" />
    <inkscape:perspective
       id="perspective2863"
       inkscape:persp3d-origin="0.5 : 0.33333333 : 1"
       inkscape:vp_z="1 : 0.5 : 1"
       inkscape:vp_y="0 : 1000 : 0"
       inkscape:vp_x="0 : 0.5 : 1"
       sodipodi:type="inkscape:persp3d" />
  </defs>
  <sodipodi:namedview
     id="base"
     pagecolor="#ffffff"
     bordercolor="#666666"
     borderopacity="1.0"
     inkscape:pageopacity="1"
     inkscape:pageshadow="2"
     inkscape:zoom="0.49497475"
     inkscape:cx="-192.16125"
     inkscape:cy="375.88952"
     inkscape:document-units="px"
     inkscape:current-layer="layer1"
     showgrid="false"
     inkscape:window-width="1600"
     inkscape:window-height="841"
     inkscape:window-x="0"
     inkscape:window-y="27"
     inkscape:window-maximized="1"
     fit-margin-top="0"
     fit-margin-left="0"
     fit-margin-right="0"
     fit-margin-bottom="0" />
  <metadata
     id="metadata4491">
    <rdf:RDF>
      <cc:Work
         rdf:about="">
        <dc:format>image/svg+xml</dc:format>
        <dc:type
           rdf:resource="http://purl.org/dc/dcmitype/StillImage" />
        <dc:title />
      </cc:Work>
    </rdf:RDF>
  </metadata>
  <g
     inkscape:label="Ebene 1"
     inkscape:groupmode="layer"
     id="layer1"
     transform="translate(-53.446444,598.74377)">
    <path
       style="fill:#232323;fill-opacity:1;stroke:#000000;stroke-width:8.29823399;stroke-opacity:1;overflow:visible"
       d="m 635.42695,-19.16705 c 73.84046,0 133.70669,-59.86346 133.70669,-133.70392 0,-73.84045 -59.86346,-133.70392 -133.70669,-133.70392 H 197.36039 c -73.84321,0 -133.703914,59.86347 -133.703914,133.70392 0,73.84046 59.860704,133.70392 133.703914,133.70392 h 438.06656 z"
       id="path402"
       inkscape:connector-curvature="0" />
    <path
       style="fill:#000000;fill-opacity:1;overflow:visible"
       d="m 635.74229,-46.61484 c 58.68511,0 106.25889,-47.57378 106.25889,-106.25889 0,-58.68512 -47.57101,-106.25889 -106.25889,-106.25889 h -438.7 c -58.6851,0 -106.258885,47.57377 -106.258885,106.25889 0,58.68511 47.573785,106.25889 106.258885,106.25889 h 438.7 z"
       id="path404"
       inkscape:connector-curvature="0" />
    <path
       style="fill:#e6e6e6;fill-opacity:1;overflow:visible"
       d="M 323.12843,-259.12986 H 197.04506 c -58.68511,0 -106.258889,47.57378 -106.258889,106.25889 0,58.68512 47.573779,106.2589 106.258889,106.2589 h 126.33232 l -0.24895,-212.51779 z"
       id="path406"
       inkscape:connector-curvature="0" />
    <path
       style="fill:#ffffff;stroke:#000000;stroke-width:5.53215647;overflow:visible"
       d="M 308.32438,-259.12986"
       id="path408"
       inkscape:connector-curvature="0" />
    <path
       style="fill:#ffffff;stroke:#000000;stroke-width:5.53215647;overflow:visible"
       d="M 635.74229,-259.12986"
       id="path410"
       inkscape:connector-curvature="0" />
    <path
       style="fill:#797979;fill-opacity:1;stroke:#000000;stroke-width:5.53215647;stroke-opacity:1;overflow:visible"
       d="m 635.74229,-46.61484 c 58.68511,0 106.25889,-47.57378 106.25889,-106.25889 0,-58.68512 -47.57101,-106.25889 -106.25889,-106.25889 v 212.51778 z"
       id="path412"
       inkscape:connector-curvature="0" />
    <path
       style="fill:#ffffff;stroke:#000000;stroke-width:5.53215647;overflow:visible"
       d="M 635.74229,-46.61484"
       id="path414"
       inkscape:connector-curvature="0" />
    <path
       style="fill:#ffffff;stroke:#000000;stroke-width:5.53215647;overflow:visible"
       d="M 305.19595,-46.61484"
       id="path416"
       inkscape:connector-curvature="0" />
    <path
       style="fill:#ff1a00;overflow:visible"
       d="M 249.29351,-170.64855"
       id="path418"
       inkscape:connector-curvature="0" />
    <path
       style="fill:#000000;fill-opacity:1;overflow:visible"
       d="m 323.64845,-51.53293 c -58.68511,0 -97.96065,-45.64582 -97.96065,-101.95487 0,-56.30905 39.27554,-101.95488 97.96065,-101.95488 v 203.90975 z"
       id="path420"
       inkscape:connector-curvature="0" />
    <path
       style="fill:#ebebeb;fill-opacity:1;overflow:visible"
       d="m 398.05319,-51.53293 c -58.68511,0 -106.25613,-45.64582 -106.25613,-101.95487 0,-56.30905 47.57102,-101.95488 106.25613,-101.95488 v 203.90975 z"
       id="path422"
       inkscape:connector-curvature="0" />
    <path
       style="fill:#dcdcdc;fill-opacity:1;overflow:visible"
       d="m 439.54436,-51.53293 c -58.68511,0 -106.25612,-45.64582 -106.25612,-101.95487 0,-56.30905 47.57101,-101.95488 106.25612,-101.95488 v 203.90975 z"
       id="path424"
       inkscape:connector-curvature="0" />
    <path
       style="fill:#c8c8c8;fill-opacity:1;overflow:visible"
       d="m 481.03553,-51.53293 c -58.68511,0 -106.25612,-45.64582 -106.25612,-101.95487 0,-56.30905 47.57101,-101.95488 106.25612,-101.95488 v 203.90975 z"
       id="path426"
       inkscape:connector-curvature="0" />
    <path
       style="fill:#797979;fill-opacity:1;stroke:#000000;stroke-width:5.53215647;stroke-opacity:1;overflow:visible"
       d="m 533.59102,-51.53293 c -58.68511,0 -106.25889,-45.64582 -106.25889,-101.95487 0,-56.30905 47.57378,-101.95488 106.25889,-101.95488 v 203.90975 z"
       id="path428"
       inkscape:connector-curvature="0" />
    <g
       transform="matrix(2.7660782,0,0,2.7660782,-167.24189,-460.51971)"
       style="overflow:visible"
       id="g432">
      <line
         id="line434"
         y2="110.759"
         x2="202.75101"
         y1="110.759"
         x1="181.522"
         style="stroke:#797979;stroke-width:5;stroke-opacity:1" />
      <polygon
         id="polygon436"
         points="199.059,101.896 211.775,110.759 199.059,119.623 202.077,110.759 "
         style="fill:#797979;fill-opacity:1" />
    </g>
    <g
       transform="matrix(2.7660782,0,0,2.7660782,-167.24189,-460.51971)"
       style="overflow:visible"
       id="g440">
      <line
         id="line442"
         y2="87.759003"
         x2="202.75101"
         y1="87.759003"
         x1="181.522"
         style="stroke:#797979;stroke-width:5;stroke-opacity:1" />
      <polygon
         id="polygon444"
         points="199.059,78.896 211.775,87.759 199.059,96.623 202.077,87.759 "
         style="fill:#797979;fill-opacity:1" />
    </g>
    <line
       style="stroke:#797979;stroke-width:13.83039093;stroke-opacity:1;overflow:visible"
       x1="334.86215"
       y1="-93.297943"
       x2="393.58325"
       y2="-93.297943"
       id="line450" />
    <polygon
       transform="matrix(2.7660782,0,0,2.7660782,-167.24189,-460.51971)"
       style="fill:#797979;fill-opacity:1;overflow:visible"
       points="199.059,141.623 202.077,132.759 199.059,123.896 211.775,132.759 "
       id="polygon452" />
    <path
       style="fill:#828282;fill-opacity:1;overflow:visible"
       d="m 253.81605,-96.56745 c -10.15428,-14.79298 -43.27253,-14.11806 -40.09984,-4.31508 -3.11184,-9.61765 -0.56428,19.65299 3.11184,35.77922 -3.67612,-16.12347 -29.13233,-40.30176 -31.11284,-29.55554 1.98051,-10.74622 -4.38147,10.88728 -7.77821,26.4437 3.39674,-15.55642 -8.06035,-39.73747 -13.99912,-29.55554 5.936,-10.18193 -23.33464,0 -35.77922,12.44459 12.44458,-12.44736 25.17131,-41.71799 15.55366,-35.77923 9.61765,-5.93876 -20.92539,-18.66549 -37.331,-15.55642 16.40561,-3.11184 39.31427,-20.92815 27.99825,-21.77733 11.31602,0.84918 -3.96103,-19.51468 -18.66826,-24.89194 14.70723,5.37449 42.70824,2.8297 34.22468,-3.10907 8.48356,5.93877 8.48356,-24.60703 0,-37.33376 8.48356,12.72949 35.20941,30.5458 32.66738,21.7801 2.5448,8.7657 20.36109,-24.32212 21.77733,-40.44836 -1.41624,16.12347 11.31326,58.1236 15.55642,51.33565 -4.24316,6.78795 27.57503,-5.93877 38.88829,-15.55643 0,0 -24.51298,26.02326 -18.26994,34.76131 0,0 1.2475,5.96089 31.21242,10.95367 l -3.74527,22.04564 c 0,0 -40.22431,-13.6589 -14.00465,0.0774 0,0.005 -35.9037,-5.11725 -0.20192,42.25737 z"
       id="path454"
       inkscape:connector-curvature="0" />
    <line
       style="fill:#e6e6e6;fill-opacity:1;stroke:#828282;stroke-width:27.66078186;stroke-opacity:1;overflow:visible"
       x1="244.55243"
       y1="-152.59161"
       x2="286.12109"
       y2="-152.59161"
       id="line460" />
    <polygon
       transform="matrix(2.7660782,0,0,2.7660782,-167.24189,-460.51971)"
       style="fill:#828282;fill-opacity:1;overflow:visible"
       points="158.627,126.227 162.937,111.323 158.627,96.421 176.786,111.323 "
       id="polygon462" />
    <path
       style="fill:#ffffff;fill-opacity:1;overflow:visible"
       d="m 170.09793,-189.38596 c 4.31785,6.47538 17.91589,15.53982 16.62137,11.0809 1.29452,4.45892 10.35895,-12.37543 11.07813,-20.57685 -0.71918,8.20142 5.75621,29.56937 7.91375,26.11454 -2.15754,3.45483 14.02955,-3.02055 19.78576,-7.91098 -5.75621,4.89319 -13.52889,18.49123 -9.49872,16.6186 -4.03017,1.87263 15.396,3.16716 23.74125,1.58219 -8.34525,1.5822 -23.88508,11.94393 -18.99189,12.66311 -4.89319,-0.71918 5.46854,8.34526 12.66311,11.07814 -7.19734,-2.73288 -21.44264,-2.08562 -17.41247,0.7911 -4.03017,-2.87672 0.50343,17.19671 5.54046,24.53511 -5.03703,-7.3384 -20.57686,-18.34739 -18.99466,-13.4542 -1.5822,-4.89319 -0.28767,9.99937 1.58496,18.20356 -1.87263,-8.20142 -14.82064,-20.50494 -15.83026,-15.0364 1.00685,-5.46854 -2.23222,5.54045 -3.95825,13.4542 1.72603,-7.91375 -4.09933,-20.21726 -7.12265,-15.0364 3.02332,-5.18086 -11.87201,0 -18.20356,6.33156 6.33155,-6.33156 12.80694,-21.22412 7.91375,-18.20356 4.89319,-3.02333 -10.6494,-9.49872 -18.99189,-7.91375 8.34525,-1.5822 19.99874,-10.6494 14.24253,-11.08091 5.75621,0.43151 -2.01647,-9.92746 -9.49871,-12.66311 7.48224,2.73289 21.72754,1.43836 17.41246,-1.58496 4.32062,3.02332 4.32062,-12.51651 0.006,-18.99189 z"
       id="path464"
       inkscape:connector-curvature="0" />
    <path
       style="fill:none;stroke:#000000;stroke-width:8.29823399;stroke-opacity:1;overflow:visible"
       d="m 635.74229,-46.61484 c 58.68511,0 106.25889,-47.57378 106.25889,-106.25889 0,-58.68512 -47.57101,-106.25889 -106.25889,-106.25889 h -438.7 c -58.6851,0 -106.258885,47.57377 -106.258885,106.25889 0,58.68511 47.573785,106.25889 106.258885,106.25889 h 438.7 z"
       id="path466"
       inkscape:connector-curvature="0" />
    <path
       id="path654"
       d="M 675.38572,-162.425"
       style="fill:none;stroke:#000000;stroke-width:2.76607823;overflow:visible"
       inkscape:connector-curvature="0" />
    <path
       id="path660"
       d="M 482.54858,-162.898"
       style="fill:none;stroke:#000000;stroke-width:2.76607823;overflow:visible"
       inkscape:connector-curvature="0" />
    <polyline
       transform="matrix(2.7660782,0,0,2.7660782,-167.24189,-460.51971)"
       id="polyline662"
       points="308.151,107.923 272.109,48.664      234.077,108.119 "
       style="opacity:1;fill:none;stroke:#e36464;stroke-width:3.61522675000000016;stroke-miterlimit:4;stroke-opacity:0.70588234999999999;stroke-dasharray:none;overflow:visible" />
    <line
       id="line664"
       y2="-152.13518"
       x2="185.2339"
       y1="-318.93799"
       x1="209.64456"
       style="opacity:1;fill:none;stroke:#e36464;stroke-width:10;stroke-miterlimit:4;stroke-opacity:0.70588234999999999;stroke-dasharray:none;overflow:visible" />
    <text
       xml:space="preserve"
       style="font-size:40px;font-style:normal;font-variant:normal;font-weight:bold;font-stretch:normal;fill:#000000;fill-opacity:1;stroke:none;overflow:visible;font-family:Jura;-inkscape-font-specification:Accanthis ADF Std Bold"
       x="80.236618"
       y="223.29939"
       id="text4437"><tspan
         sodipodi:role="line"
         id="tspan4439"
         x="80.236618"
         y="223.29939"
         style="font-size:14px;font-style:normal;font-variant:normal;font-weight:bold;font-stretch:normal;fill:#ffffff;font-family:Liberation Sans;-inkscape-font-specification:Liberation Sans Bold" /></text>
    <text
       xml:space="preserve"
       style="font-size:40px;font-style:normal;font-weight:normal;text-align:center;text-anchor:middle;fill:#000000;fill-opacity:1;stroke:none;font-family:Bitstream Vera Sans"
       x="580.37921"
       y="-429.82962"
       id="text4569-7"><tspan
         sodipodi:role="line"
         x="584.81671"
         y="-429.82962"
         style="font-size:32px;font-style:normal;font-variant:normal;font-weight:normal;font-stretch:normal;text-align:center;line-height:125%;writing-mode:lr-tb;text-anchor:middle;fill:#000000;font-family:Liberation Sans;-inkscape-font-specification:Liberation Sans"
         id="tspan4575-6">Subcritical </tspan><tspan
         sodipodi:role="line"
         x="584.81671"
         y="-389.82962"
         style="font-size:32px;font-style:normal;font-variant:normal;font-weight:normal;font-stretch:normal;text-align:center;line-height:125%;writing-mode:lr-tb;text-anchor:middle;fill:#000000;font-family:Liberation Sans;-inkscape-font-specification:Liberation Sans"
         id="tspan4612">Pieces </tspan><tspan
         sodipodi:role="line"
         x="580.37921"
         y="-349.82962"
         style="font-size:32px;font-style:normal;font-variant:normal;font-weight:normal;font-stretch:normal;text-align:center;line-height:125%;writing-mode:lr-tb;text-anchor:middle;fill:#000000;font-family:Liberation Sans;-inkscape-font-specification:Liberation Sans"
         id="tspan4614">of HEU</tspan></text>
    <text
       xml:space="preserve"
       style="font-size:40px;font-style:normal;font-weight:normal;text-align:center;line-height:125%;text-anchor:middle;fill:#000000;fill-opacity:1;stroke:none;font-family:Bitstream Vera Sans"
       x="210.3092"
       y="-428.85358"
       id="text4569-7-0"
       sodipodi:linespacing="125%"><tspan
         sodipodi:role="line"
         x="210.3092"
         y="-428.85358"
         style="font-size:32px;font-style:normal;font-variant:normal;font-weight:normal;font-stretch:normal;text-align:center;line-height:125%;writing-mode:lr-tb;text-anchor:middle;fill:#000000;font-family:Liberation Sans;-inkscape-font-specification:Liberation Sans"
         id="tspan4614-3">Conventional</tspan><tspan
         sodipodi:role="line"
         x="210.3092"
         y="-388.85358"
         style="font-size:32px;font-style:normal;font-variant:normal;font-weight:normal;font-stretch:normal;text-align:center;line-height:125%;writing-mode:lr-tb;text-anchor:middle;fill:#000000;font-family:Liberation Sans;-inkscape-font-specification:Liberation Sans"
         id="tspan2891">Chemical</tspan><tspan
         sodipodi:role="line"
         x="210.3092"
         y="-348.85358"
         style="font-size:32px;font-style:normal;font-variant:normal;font-weight:normal;font-stretch:normal;text-align:center;line-height:125%;writing-mode:lr-tb;text-anchor:middle;fill:#000000;font-family:Liberation Sans;-inkscape-font-specification:Liberation Sans"
         id="tspan2893">Explosive</tspan></text>
  </g>
</svg>
